<?xml version="1.0" encoding="iso-8859-1"?>
<!-- Uploaded to: SVG Repo, www.svgrepo.com, Generator: SVG Repo Mixer Tools -->
<svg fill="#000000" height="800px" width="800px" version="1.1" id="Layer_1" xmlns="http://www.w3.org/2000/svg" xmlns:xlink="http://www.w3.org/1999/xlink" 
	 viewBox="0 0 460.002 460.002" xml:space="preserve">
<g>
	<g>
		<g>
			<path d="M114.501,132.833V73.945c0-8.284-6.716-15-15-15s-15,6.716-15,15v59.017c-21.825,6.559-37.774,26.828-37.774,50.762
				c0,23.933,15.949,44.202,37.774,50.761v151.572c0,8.284,6.716,15,15,15s15-6.716,15-15V234.614
				c22.056-6.414,38.228-26.793,38.228-50.89C152.73,159.625,136.558,139.247,114.501,132.833z M99.729,206.724
				c-12.683,0-23.001-10.318-23.001-23.001c0-12.683,10.318-23.001,23.001-23.001c12.683,0,23.001,10.318,23.001,23.001
				C122.73,196.406,112.411,206.724,99.729,206.724z"/>
			<path d="M245.002,243.101V73.945c0-8.284-6.716-15-15-15s-15,6.716-15,15v169.156c-21.94,6.487-38.001,26.81-38.001,50.826
				s16.061,44.339,38.001,50.826v41.304c0,8.284,6.716,15,15,15s15-6.716,15-15v-41.304c21.94-6.487,38.001-26.811,38.001-50.826
				C283.003,269.912,266.942,249.588,245.002,243.101z M230.002,316.927c-12.683,0-23.001-10.318-23.001-23.001
				c0-12.683,10.318-23.001,23.001-23.001c12.683,0,23.001,10.318,23.001,23.001C253.003,306.609,242.685,316.927,230.002,316.927z"
				/>
			<path d="M375.502,77.048v-3.103c0-8.284-6.716-15-15-15s-15,6.716-15,15v3.103c-21.94,6.487-38.001,26.811-38.001,50.826
				c0,24.016,16.061,44.339,38.001,50.826v207.357c0,8.284,6.716,15,15,15s15-6.716,15-15V178.699
				c21.94-6.487,38.001-26.811,38.001-50.826S397.442,83.535,375.502,77.048z M360.502,150.875
				c-12.683,0-23.001-10.318-23.001-23.001c0-12.683,10.318-23.001,23.001-23.001c12.683,0,23.001,10.318,23.001,23.001
				C383.503,140.556,373.185,150.875,360.502,150.875z"/>
			<path d="M427.138,0H32.865C14.743,0,0.001,14.743,0.001,32.865v394.272c0,18.122,14.743,32.865,32.865,32.865h394.271
				c18.122,0,32.865-14.743,32.865-32.865V32.865C460.003,14.743,445.26,0,427.138,0z M427.138,430.002H32.865
				c-1.58,0-2.865-1.285-2.865-2.865V32.865c0-1.58,1.285-2.865,2.865-2.865h394.271c1.58,0,2.865,1.285,2.865,2.865v394.272h0.001
				C430.003,428.717,428.718,430.002,427.138,430.002z"/>
		</g>
	</g>
</g>
</svg>